<?xml version="1.0" encoding="UTF-8"?>
<svg xmlns="http://www.w3.org/2000/svg" version="1.1" viewBox="0 0 500 500">
  <defs>
    <style>
      .cls-1 {
        fill: #007eff;
      }

      .cls-2 {
        fill: #ed495c;
      }

      .cls-3 {
        fill: #3b3e7d;
      }

      .cls-4 {
        fill: #fff;
      }

      .cls-5 {
        fill: #d9e4f5;
      }

      .cls-6 {
        fill: #b9d2f0;
      }

      .cls-7 {
        fill: #ff6d6b;
      }

      .cls-8 {
        fill: #c7d9ed;
      }

      .cls-9 {
        fill: #fb9a83;
      }

      .cls-10 {
        fill: #021147;
      }

      .cls-11 {
        fill: #b4cae3;
      }

      .cls-12 {
        fill: #0060e6;
      }

      .cls-13 {
        fill: #18285d;
      }

      .cls-14 {
        fill: #00a0ff;
      }
    </style>
  </defs>
  <!-- Generator: Adobe Illustrator 28.7.1, SVG Export Plug-In . SVG Version: 1.2.0 Build 142)  -->
  <g>
    <g id="BACKGROUND">
      <rect class="cls-4" width="500" height="500"/>
    </g>
    <g id="OBJECTS">
      <ellipse class="cls-5" cx="246.46" cy="396.42" rx="223.07" ry="26.7"/>
      <g>
        <path class="cls-5" d="M133.79,84.35c0,1.05-.43,2.02-1.13,2.71-.69.7-1.65,1.13-2.71,1.13H47.84c-2.11,0-3.84-1.73-3.84-3.84,0-1.05.43-2.02,1.13-2.71.69-.7,1.65-1.13,2.71-1.13h3.88c1.53-3.56,5.07-6.05,9.19-6.05,2.77,0,5.28,1.13,7.1,2.95,2.42-4.1,6.88-6.86,11.99-6.86,1.4,0,2.76.21,4.03.6,2.67-5.02,7.95-8.44,14.04-8.44,7.31,0,13.46,4.94,15.32,11.65,1.35-.67,2.87-1.06,4.48-1.06,4.56,0,8.4,3.04,9.61,7.21h2.47c2.11,0,3.84,1.73,3.84,3.84Z"/>
        <path class="cls-5" d="M429.15,86.18c0,1.05-.43,2.02-1.13,2.71-.69.7-1.65,1.13-2.71,1.13h-82.11c-2.11,0-3.84-1.73-3.84-3.84,0-1.05.43-2.02,1.13-2.71.69-.7,1.65-1.13,2.71-1.13h3.88c1.53-3.56,5.07-6.05,9.19-6.05,2.77,0,5.28,1.13,7.1,2.95,2.42-4.1,6.88-6.86,11.99-6.86,1.4,0,2.76.21,4.03.6,2.67-5.02,7.95-8.44,14.04-8.44,7.31,0,13.46,4.94,15.32,11.65,1.35-.67,2.87-1.06,4.48-1.06,4.56,0,8.4,3.04,9.61,7.21h2.47c2.11,0,3.84,1.73,3.84,3.84Z"/>
        <path class="cls-5" d="M295.46,111.89c0,1.05-.43,2.02-1.13,2.71-.69.7-1.65,1.13-2.71,1.13h-82.11c-2.11,0-3.84-1.73-3.84-3.84,0-1.05.43-2.02,1.13-2.71.69-.7,1.65-1.13,2.71-1.13h3.88c1.53-3.56,5.07-6.05,9.19-6.05,2.77,0,5.28,1.13,7.1,2.95,2.42-4.1,6.88-6.86,11.99-6.86,1.4,0,2.76.21,4.03.6,2.67-5.02,7.95-8.44,14.04-8.44,7.31,0,13.46,4.94,15.32,11.65,1.35-.67,2.87-1.06,4.48-1.06,4.56,0,8.4,3.04,9.61,7.21h2.47c2.11,0,3.84,1.73,3.84,3.84Z"/>
      </g>
      <g>
        <g>
          <path class="cls-8" d="M399.63,263.91c4.71-8.42,13.72-26.09,17.59-44.33,5.79-27.26,18.68-28.47,23.39-20.66,12.94,21.44-22.09,58.18-33.23,69.03l-7.76-4.03Z"/>
          <path class="cls-11" d="M402.58,265.44c8.63-11,15.17-23.07,19.41-31.98,5.63-11.83,8.53-20.77,8.56-20.87.1-.32.45-.5.77-.39.32.1.5.45.4.77-.03.09-2.94,9.1-8.61,21-4.25,8.92-10.79,21-19.42,32.05l-1.1-.57Z"/>
        </g>
        <g>
          <path class="cls-8" d="M90.69,344.27c-4.32-8.62-12.51-26.68-15.55-45.09-4.54-27.5-17.36-29.29-22.43-21.71-13.9,20.82,19.42,59.13,30.04,70.47l7.93-3.68Z"/>
          <path class="cls-11" d="M87.67,345.66c-8.11-11.39-14.1-23.74-17.93-32.83-5.08-12.07-7.57-21.14-7.59-21.23-.09-.33-.42-.52-.75-.43-.33.09-.52.42-.43.75.02.09,2.53,9.23,7.64,21.37,3.83,9.11,9.82,21.47,17.94,32.9l1.13-.52Z"/>
        </g>
        <g>
          <path class="cls-5" d="M101.24,369.33c-9.33-9.4-29.7-31.44-42.54-56.45-18.42-35.9-36.89-32.69-40.52-20-9.37,32.82,45.84,68.5,68.73,81.67l14.32-5.22Z"/>
          <path class="cls-8" d="M96.2,371.17c-16.07-12.05-29.66-26.32-38.9-37.08-12.35-14.39-19.79-25.8-19.86-25.91-.27-.41-.81-.53-1.22-.26-.41.26-.53.81-.26,1.22.07.11,7.56,11.6,19.98,26.08,9.12,10.63,22.47,24.66,38.28,36.67l1.98-.72Z"/>
        </g>
        <g>
          <path class="cls-5" d="M393.01,281.01c9.75-8.97,31.1-30.05,45.07-54.45,20.04-35.03,38.34-30.98,41.39-18.13,7.87,33.22-48.91,66.34-72.38,78.45l-14.07-5.87Z"/>
          <path class="cls-8" d="M397.96,283.08c16.61-11.31,30.83-24.94,40.55-35.26,12.99-13.81,20.94-24.87,21.02-24.98.28-.4.84-.49,1.24-.2.4.28.49.84.2,1.23-.08.11-8.09,11.24-21.15,25.14-9.6,10.21-23.57,23.61-39.91,34.88l-1.95-.81Z"/>
        </g>
        <g>
          <path class="cls-5" d="M112.61,226.47c-9.65-5.75-31.06-19.55-46.9-37.39-22.73-25.6-37.23-19.06-37.52-7.86-.76,28.95,52.16,46.59,73.76,52.57l10.66-7.32Z"/>
          <path class="cls-8" d="M108.85,229.05c-15.76-6.5-29.94-15.35-39.81-22.24-13.19-9.21-21.72-17.01-21.8-17.09-.3-.28-.78-.26-1.06.05-.28.3-.26.78.04,1.06.08.08,8.67,7.93,21.94,17.2,9.75,6.81,23.68,15.51,39.21,22.03l1.48-1.01Z"/>
        </g>
        <path class="cls-8" d="M164.62,115.77c1.6-15.01.35-29.52-7.12-25.94-7.48,3.58-4.86,28.51,5.31,44.95l2.12,6.42c-7.2-12.11-21.57-22.37-27.46-18.54-5.86,3.81,4.32,9.77,14.53,13.67,7.77,2.96,12.18,6.69,14.23,8.79l10.02,30.32c-11.46-19.15-34.15-35.32-43.48-29.25-9.3,6.05,6.86,15.51,23.06,21.69,12.24,4.67,19.23,10.53,22.51,13.88l2,6.05c1.1-.18,2.2-.37,3.3-.57l-11.92-36.07c.8-3.1,2.39-7.34,5.54-12.27,5.88-9.21,10.51-20.06,3.53-19.63-6.05.37-10.92,12.92-11.23,25.35l-4.12-12.48c-.62-4.08-1.51-9.9-.82-16.37Z"/>
        <path class="cls-5" d="M454.97,281.54c4.05-14.54,10.57-27.57,16.19-21.48,5.63,6.09-6.01,28.29-21.53,39.81l-4.34,5.18c11.16-8.6,28.3-12.83,32.37-7.09,4.04,5.7-7.63,7.49-18.55,7.34-8.32-.11-13.79,1.72-16.47,2.92l-20.5,24.48c17.72-13.56,44.78-20.21,51.21-11.13,6.41,9.05-12.1,11.88-29.44,11.64-13.1-.18-21.76,2.68-26.04,4.59l-4.09,4.88c-.96-.58-1.91-1.16-2.86-1.75l24.39-29.12c.4-3.17.49-7.7-.62-13.44-2.06-10.73-2.36-22.53,3.97-19.55,5.49,2.58,5.38,16.04,1.08,27.71l8.44-10.07c2.08-3.56,5.05-8.64,6.8-14.92Z"/>
      </g>
      <g>
        <g>
          <path class="cls-1" d="M433.54,169.65c-2.68,0-4.86-2.18-4.86-4.86s2.18-4.86,4.86-4.86,4.86,2.18,4.86,4.86-2.18,4.86-4.86,4.86ZM433.54,161.46c-1.84,0-3.34,1.5-3.34,3.34s1.5,3.34,3.34,3.34,3.34-1.5,3.34-3.34-1.5-3.34-3.34-3.34Z"/>
          <path class="cls-12" d="M458.24,174.6c-2.68,0-4.86-2.18-4.86-4.86s2.18-4.86,4.86-4.86,4.86,2.18,4.86,4.86-2.18,4.86-4.86,4.86ZM458.24,166.4c-1.84,0-3.34,1.5-3.34,3.34s1.5,3.34,3.34,3.34,3.34-1.5,3.34-3.34-1.5-3.34-3.34-3.34Z"/>
          <g>
            <g>
              <path class="cls-1" d="M469.94,184.52c-.42,0-.76-.34-.76-.76v-3.36c0-.42.34-.76.76-.76s.76.34.76.76v3.36c0,.42-.34.76-.76.76Z"/>
              <path class="cls-1" d="M469.94,190.4c-.42,0-.76-.34-.76-.76v-3.36c0-.42.34-.76.76-.76s.76.34.76.76v3.36c0,.42-.34.76-.76.76Z"/>
            </g>
            <g>
              <path class="cls-1" d="M474.66,185.78h-3.02c-.42,0-.76-.34-.76-.76s.34-.76.76-.76h3.02c.42,0,.76.34.76.76s-.34.76-.76.76Z"/>
              <path class="cls-1" d="M468.24,185.78h-3.02c-.42,0-.76-.34-.76-.76s.34-.76.76-.76h3.02c.42,0,.76.34.76.76s-.34.76-.76.76Z"/>
            </g>
          </g>
          <g>
            <g>
              <path class="cls-12" d="M443.98,179.04c-.42,0-.76-.34-.76-.76v-3.36c0-.42.34-.76.76-.76s.76.34.76.76v3.36c0,.42-.34.76-.76.76Z"/>
              <path class="cls-12" d="M443.98,184.92c-.42,0-.76-.34-.76-.76v-3.36c0-.42.34-.76.76-.76s.76.34.76.76v3.36c0,.42-.34.76-.76.76Z"/>
            </g>
            <g>
              <path class="cls-12" d="M448.7,180.3h-3.02c-.42,0-.76-.34-.76-.76s.34-.76.76-.76h3.02c.42,0,.76.34.76.76s-.34.76-.76.76Z"/>
              <path class="cls-12" d="M442.29,180.3h-3.02c-.42,0-.76-.34-.76-.76s.34-.76.76-.76h3.02c.42,0,.76.34.76.76s-.34.76-.76.76Z"/>
            </g>
          </g>
        </g>
        <g>
          <path class="cls-1" d="M37.7,261.52c0,2.68-2.18,4.86-4.86,4.86s-4.86-2.18-4.86-4.86,2.18-4.86,4.86-4.86,4.86,2.18,4.86,4.86ZM29.51,261.52c0,1.84,1.5,3.34,3.34,3.34s3.34-1.5,3.34-3.34-1.5-3.34-3.34-3.34-3.34,1.5-3.34,3.34Z"/>
          <path class="cls-12" d="M42.65,236.82c0,2.68-2.18,4.86-4.86,4.86s-4.86-2.18-4.86-4.86,2.18-4.86,4.86-4.86,4.86,2.18,4.86,4.86ZM34.45,236.82c0,1.84,1.5,3.34,3.34,3.34s3.34-1.5,3.34-3.34-1.5-3.34-3.34-3.34-3.34,1.5-3.34,3.34Z"/>
          <g>
            <g>
              <path class="cls-1" d="M52.57,225.11c0,.42-.34.76-.76.76h-3.36c-.42,0-.76-.34-.76-.76s.34-.76.76-.76h3.36c.42,0,.76.34.76.76Z"/>
              <path class="cls-1" d="M58.46,225.11c0,.42-.34.76-.76.76h-3.36c-.42,0-.76-.34-.76-.76s.34-.76.76-.76h3.36c.42,0,.76.34.76.76Z"/>
            </g>
            <g>
              <path class="cls-1" d="M53.83,220.4v3.02c0,.42-.34.76-.76.76s-.76-.34-.76-.76v-3.02c0-.42.34-.76.76-.76s.76.34.76.76Z"/>
              <path class="cls-1" d="M53.83,226.81v3.02c0,.42-.34.76-.76.76s-.76-.34-.76-.76v-3.02c0-.42.34-.76.76-.76s.76.34.76.76Z"/>
            </g>
          </g>
          <g>
            <g>
              <path class="cls-12" d="M47.09,251.07c0,.42-.34.76-.76.76h-3.36c-.42,0-.76-.34-.76-.76s.34-.76.76-.76h3.36c.42,0,.76.34.76.76Z"/>
              <path class="cls-12" d="M52.97,251.07c0,.42-.34.76-.76.76h-3.36c-.42,0-.76-.34-.76-.76s.34-.76.76-.76h3.36c.42,0,.76.34.76.76Z"/>
            </g>
            <g>
              <path class="cls-12" d="M48.35,246.35v3.02c0,.42-.34.76-.76.76s-.76-.34-.76-.76v-3.02c0-.42.34-.76.76-.76s.76.34.76.76Z"/>
              <path class="cls-12" d="M48.35,252.77v3.02c0,.42-.34.76-.76.76s-.76-.34-.76-.76v-3.02c0-.42.34-.76.76-.76s.76.34.76.76Z"/>
            </g>
          </g>
        </g>
      </g>
      <g>
        <g>
          <g>
            <g>
              <g>
                <path class="cls-14" d="M67.89,124.83c-.2-1.03-.61-2.03-1.22-2.92-.4-.6-.89-1.14-1.46-1.62-3.37-2.83-8.4-2.38-11.22,1-2.17,2.61-2.4,6.2-.83,8.99l-8.97,10.76c-.76.91-.64,2.27.27,3.03l1.03.86c.55.46,1.16.84,1.8,1.14.65.3,1.33.51,2.04.64.48.08.91-.11,1.18-.44.27-.33.39-.79.22-1.25l-.76-2.06,2.16.37c.48.09.91-.11,1.18-.43.27-.33.38-.79.22-1.25l-.76-2.06,2.16.37c.48.08.91-.11,1.18-.44.27-.33.39-.79.22-1.25l-.76-2.05,1.94-2.33c1.27.44,2.62.54,3.92.31,1.88-.32,3.65-1.31,4.92-2.94.13-.16.25-.33.36-.5.14-.21.27-.42.39-.64.88-1.65,1.13-3.54.77-5.31ZM59.39,122.96c.98-1.17,2.72-1.33,3.89-.36.17.14.31.29.43.46.76,1,.76,2.43-.08,3.44-.09.11-.18.2-.28.29-.25.22-.53.39-.83.51-.04.02-.09.03-.13.05-.2.07-.41.11-.63.13-.06,0-.13.01-.19.01-.06,0-.13,0-.19,0-.06,0-.11,0-.17-.01-.06,0-.12-.01-.18-.02,0,0,0,0-.02,0-.05,0-.1-.02-.15-.03-.04,0-.08-.02-.13-.03-.04,0-.08-.02-.11-.04-.06-.02-.11-.04-.17-.06-.08-.03-.15-.06-.22-.1-.17-.09-.34-.2-.49-.33-1.06-.89-1.29-2.41-.59-3.56.07-.12.15-.23.24-.33Z"/>
                <path class="cls-1" d="M54.65,134.48h0c.15.13.17.36.05.51l-7.05,8.45c-.13.15-.36.17-.51.05h0c-.15-.13-.17-.36-.05-.51l7.05-8.45c.13-.15.36-.17.51-.05Z"/>
                <path class="cls-1" d="M53.07,133.16h0c.15.13.17.36.05.51l-7.05,8.45c-.13.15-.36.17-.51.05h0c-.15-.13-.17-.36-.05-.51l7.05-8.45c.13-.15.36-.17.51-.05Z"/>
              </g>
              <path class="cls-1" d="M63.35,126.79c-.07.12-.15.23-.24.33-.72.86-1.85,1.17-2.86.89-.37-.1-.72-.28-1.04-.54-1.17-.98-1.33-2.72-.35-3.89.09-.11.18-.2.28-.29-.7,1.15-.47,2.67.59,3.56.16.13.32.24.49.33.07.04.15.07.22.1.05.03.11.05.17.06.04.01.08.03.11.04.04.01.08.02.13.03.05.01.1.03.15.03,0,0,.01,0,.02,0,.06.01.12.02.18.02.06,0,.11.01.17.01.06,0,.13,0,.19,0,.06,0,.13,0,.19-.01.21-.02.42-.06.63-.13.05-.01.09-.03.13-.05.3-.12.58-.29.83-.51Z"/>
              <path class="cls-1" d="M65.41,127.84c-.01-.13-.02-.27-.01-.41.07-1.39,1.15-2.48,2.49-2.61-.2-1.03-.61-2.03-1.22-2.92-1.07.18-2.08.58-2.96,1.15.76,1,.76,2.43-.08,3.44-.09.11-.18.2-.28.29-.25.22-.53.39-.83.51-.04.02-.09.03-.13.05-.2.07-.41.11-.63.13-.06,0-.13.01-.19.01-.07,0-.13,0-.19,0-.06,0-.11,0-.17-.01-.06,0-.12-.01-.18-.02,0,0,0,0-.02,0-.05,0-.1-.02-.15-.03-.04,0-.08-.02-.13-.03-.04,0-.08-.02-.11-.04-.06-.02-.11-.04-.17-.06-.08.24-.15.49-.2.74-.09.43-.15.87-.18,1.32-.09,1.81.42,3.51,1.37,4.89,1.88-.32,3.65-1.31,4.92-2.94.13-.16.25-.33.36-.5.14-.21.27-.42.39-.64-.94-.38-1.61-1.26-1.71-2.3Z"/>
            </g>
            <g>
              <g>
                <path class="cls-14" d="M77.68,130.35c.09-4.26-3.27-7.88-7.52-8.11-4.4-.24-8.15,3.14-8.38,7.53-.18,3.39,1.79,6.39,4.72,7.69l-.73,13.98c-.06,1.19.85,2.2,2.04,2.26l1.34.07c.72.04,1.43-.02,2.13-.17.7-.15,1.37-.39,2.01-.71.43-.22.67-.63.69-1.06.02-.42-.16-.86-.57-1.13l-1.84-1.19,1.95-.99c.43-.22.66-.63.69-1.06.02-.42-.16-.86-.57-1.13l-1.84-1.19,1.95-1c.43-.22.66-.63.69-1.06.02-.42-.16-.86-.57-1.13l-1.84-1.19.16-3.02c3.12-1.01,5.43-3.9,5.51-7.41ZM72.56,128.56c-.26,1.32-1.47,2.28-2.85,2.21-1.39-.07-2.48-1.16-2.61-2.49-.01-.14-.02-.27,0-.41.08-1.52,1.38-2.7,2.9-2.62,1.52.08,2.7,1.38,2.62,2.91,0,.14-.03.27-.05.41Z"/>
                <path class="cls-1" d="M70.21,139.93h0c.2.01.35.18.34.38l-.57,10.99c-.01.2-.18.35-.38.34h0c-.2-.01-.35-.18-.34-.38l.57-10.99c.01-.2.18-.35.38-.34Z"/>
                <path class="cls-1" d="M68.16,139.82h0c.2.01.35.18.34.38l-.57,10.99c-.01.2-.18.35-.38.34h0c-.2-.01-.35-.18-.34-.38l.57-10.99c.01-.2.18-.35.38-.34Z"/>
              </g>
              <path class="cls-1" d="M72.57,128.97c-.08,1.52-1.38,2.7-2.9,2.62-1.52-.08-2.7-1.38-2.62-2.9,0-.14.03-.27.05-.4.13,1.34,1.22,2.42,2.61,2.49,1.39.07,2.59-.89,2.85-2.21.01.13.02.27,0,.41Z"/>
            </g>
            <path class="cls-3" d="M71.8,111.82c-4.63-1.97-10.01.19-11.98,4.82-.26.6-.44,1.21-.56,1.83,1.15-.12,2.32,0,3.44.39.07-.29.17-.58.29-.87,1.23-2.89,4.58-4.24,7.47-3.01,2.89,1.23,4.24,4.58,3.01,7.47-.08.2-.18.39-.28.57,1.06.51,1.98,1.26,2.71,2.16.28-.43.53-.9.74-1.39,1.97-4.63-.19-10.01-4.83-11.98ZM70.65,125.37c-.8.38-1.69.57-2.59.55-.01,0-.02,0-.03,0-.68-.02-1.37-.17-2.03-.45-.64-.27-1.21-.65-1.69-1.11-.02-.02-.05-.05-.07-.07-.56-.55-.99-1.2-1.28-1.91-1.11-.69-2.57-.5-3.48.48.51,1.68,1.49,3.2,2.86,4.36.04.04.09.07.13.11.08.07.16.13.24.19.58.44,1.23.82,1.93,1.12.8.34,1.62.56,2.44.66.11.01.22.03.33.03.02,0,.05,0,.07,0,1.79.15,3.57-.25,5.12-1.1,0-.02,0-.05,0-.07.07-1.3-.77-2.43-1.96-2.79Z"/>
          </g>
          <g>
            <path class="cls-11" d="M33.95,159.68h-2.1c-.54,0-.99-.44-.99-.99v-2.1c0-.54.44-.99.99-.99s.99.44.99.99v1.11h1.11c.54,0,.99.44.99.99s-.44.99-.99.99Z"/>
            <path class="cls-11" d="M90.67,159.68h-4.17c-.54,0-.99-.44-.99-.99s.44-.99.99-.99h4.17c.54,0,.99.44.99.99s-.44.99-.99.99ZM82.57,159.68h-4.17c-.54,0-.99-.44-.99-.99s.44-.99.99-.99h4.17c.54,0,.99.44.99.99s-.44.99-.99.99ZM74.46,159.68h-4.17c-.54,0-.99-.44-.99-.99s.44-.99.99-.99h4.17c.54,0,.99.44.99.99s-.44.99-.99.99ZM66.36,159.68h-4.17c-.54,0-.99-.44-.99-.99s.44-.99.99-.99h4.17c.54,0,.99.44.99.99s-.44.99-.99.99ZM58.26,159.68h-4.17c-.54,0-.99-.44-.99-.99s.44-.99.99-.99h4.17c.54,0,.99.44.99.99s-.44.99-.99.99ZM50.15,159.68h-4.17c-.54,0-.99-.44-.99-.99s.44-.99.99-.99h4.17c.54,0,.99.44.99.99s-.44.99-.99.99ZM42.05,159.68h-4.17c-.54,0-.99-.44-.99-.99s.44-.99.99-.99h4.17c.54,0,.99.44.99.99s-.44.99-.99.99Z"/>
            <path class="cls-11" d="M96.69,159.68h-2.1c-.54,0-.99-.44-.99-.99s.44-.99.99-.99h1.11v-1.11c0-.54.44-.99.99-.99s.99.44.99.99v2.1c0,.54-.44.99-.99.99Z"/>
            <path class="cls-11" d="M96.69,153.8c-.54,0-.99-.44-.99-.99v-4.01c0-.54.44-.99.99-.99s.99.44.99.99v4.01c0,.54-.44.99-.99.99ZM96.69,146.01c-.54,0-.99-.44-.99-.99v-4.01c0-.54.44-.99.99-.99s.99.44.99.99v4.01c0,.54-.44.99-.99.99ZM96.69,138.22c-.54,0-.99-.44-.99-.99v-4.01c0-.54.44-.99.99-.99s.99.44.99.99v4.01c0,.54-.44.99-.99.99ZM96.69,130.43c-.54,0-.99-.44-.99-.99v-4.01c0-.54.44-.99.99-.99s.99.44.99.99v4.01c0,.54-.44.99-.99.99ZM96.69,122.64c-.54,0-.99-.44-.99-.99v-4.01c0-.54.44-.99.99-.99s.99.44.99.99v4.01c0,.54-.44.99-.99.99ZM96.69,114.85c-.54,0-.99-.44-.99-.99v-4.01c0-.54.44-.99.99-.99s.99.44.99.99v4.01c0,.54-.44.99-.99.99Z"/>
            <path class="cls-11" d="M96.69,107.05c-.54,0-.99-.44-.99-.99v-1.11h-1.11c-.54,0-.99-.44-.99-.99s.44-.99.99-.99h2.1c.54,0,.99.44.99.99v2.1c0,.54-.44.99-.99.99Z"/>
            <path class="cls-11" d="M90.67,104.96h-4.17c-.54,0-.99-.44-.99-.99s.44-.99.99-.99h4.17c.54,0,.99.44.99.99s-.44.99-.99.99ZM82.57,104.96h-4.17c-.54,0-.99-.44-.99-.99s.44-.99.99-.99h4.17c.54,0,.99.44.99.99s-.44.99-.99.99ZM74.46,104.96h-4.17c-.54,0-.99-.44-.99-.99s.44-.99.99-.99h4.17c.54,0,.99.44.99.99s-.44.99-.99.99ZM66.36,104.96h-4.17c-.54,0-.99-.44-.99-.99s.44-.99.99-.99h4.17c.54,0,.99.44.99.99s-.44.99-.99.99ZM58.26,104.96h-4.17c-.54,0-.99-.44-.99-.99s.44-.99.99-.99h4.17c.54,0,.99.44.99.99s-.44.99-.99.99ZM50.15,104.96h-4.17c-.54,0-.99-.44-.99-.99s.44-.99.99-.99h4.17c.54,0,.99.44.99.99s-.44.99-.99.99ZM42.05,104.96h-4.17c-.54,0-.99-.44-.99-.99s.44-.99.99-.99h4.17c.54,0,.99.44.99.99s-.44.99-.99.99Z"/>
            <path class="cls-11" d="M31.85,107.05c-.54,0-.99-.44-.99-.99v-2.1c0-.54.44-.99.99-.99h2.1c.54,0,.99.44.99.99s-.44.99-.99.99h-1.11v1.11c0,.54-.44.99-.99.99Z"/>
            <path class="cls-11" d="M31.85,153.8c-.54,0-.99-.44-.99-.99v-4.01c0-.54.44-.99.99-.99s.99.44.99.99v4.01c0,.54-.44.99-.99.99ZM31.85,146.01c-.54,0-.99-.44-.99-.99v-4.01c0-.54.44-.99.99-.99s.99.44.99.99v4.01c0,.54-.44.99-.99.99ZM31.85,138.22c-.54,0-.99-.44-.99-.99v-4.01c0-.54.44-.99.99-.99s.99.44.99.99v4.01c0,.54-.44.99-.99.99ZM31.85,130.43c-.54,0-.99-.44-.99-.99v-4.01c0-.54.44-.99.99-.99s.99.44.99.99v4.01c0,.54-.44.99-.99.99ZM31.85,122.64c-.54,0-.99-.44-.99-.99v-4.01c0-.54.44-.99.99-.99s.99.44.99.99v4.01c0,.54-.44.99-.99.99ZM31.85,114.85c-.54,0-.99-.44-.99-.99v-4.01c0-.54.44-.99.99-.99s.99.44.99.99v4.01c0,.54-.44.99-.99.99Z"/>
          </g>
          <path class="cls-11" d="M124.65,173.2c-.54,0-.99-.44-.99-.99v-4.19c0-.54.44-.99.99-.99s.99.44.99.99v4.19c0,.54-.44.99-.99.99ZM124.65,165.06c-.54,0-.99-.44-.99-.99v-4.19c0-.54.44-.99.99-.99s.99.44.99.99v4.19c0,.54-.44.99-.99.99ZM124.65,156.92c-.54,0-.99-.44-.99-.99v-4.19c0-.54.44-.99.99-.99s.99.44.99.99v4.19c0,.54-.44.99-.99.99ZM124.65,148.78c-.54,0-.99-.44-.99-.99v-4.19c0-.54.44-.99.99-.99s.99.44.99.99v4.19c0,.54-.44.99-.99.99ZM124.65,140.64c-.54,0-.99-.44-.99-.99v-4.19c0-.54.44-.99.99-.99s.99.44.99.99v4.19c0,.54-.44.99-.99.99ZM121.27,135.88h-4.19c-.54,0-.99-.44-.99-.99s.44-.99.99-.99h4.19c.54,0,.99.44.99.99s-.44.99-.99.99ZM113.13,135.88h-4.19c-.54,0-.99-.44-.99-.99s.44-.99.99-.99h4.19c.54,0,.99.44.99.99s-.44.99-.99.99ZM104.99,135.88h-4.19c-.54,0-.99-.44-.99-.99s.44-.99.99-.99h4.19c.54,0,.99.44.99.99s-.44.99-.99.99ZM96.85,135.88h-.09c-.54,0-.99-.44-.99-.99s.44-.99.99-.99h.09c.54,0,.99.44.99.99s-.44.99-.99.99Z"/>
        </g>
        <g>
          <g>
            <g>
              <path class="cls-1" d="M342.28,130.18l-.17,5.85,5.48.16c.24,1.39.71,2.75,1.39,4.03l-3.89,3.67,4.02,4.26,3.72-3.51c1.46,1.06,3.08,1.79,4.78,2.18l-.16,5.48,5.85.17.16-5.65c1.15-.26,2.27-.67,3.34-1.25l3.67,3.89,4.26-4.02-3.51-3.72c1.06-1.46,1.79-3.09,2.18-4.78l4.79.14.17-5.85-4.96-.14c-.33-1.47-.91-2.89-1.75-4.2l3.72-3.51-4.02-4.26-3.89,3.67c-1.44-.88-3.01-1.47-4.63-1.75l.16-5.52-5.85-.17-.17,5.98c-1.22.35-2.4.87-3.51,1.58l-3.51-3.72-4.26,4.02,3.67,3.88c-.63,1.03-1.11,2.12-1.44,3.26l-5.65-.16ZM356.89,130.08c2.15-2.03,5.55-1.93,7.59.22,2.03,2.15,1.93,5.55-.22,7.59-2.15,2.03-5.55,1.93-7.59-.22s-1.93-5.55.22-7.59Z"/>
              <path class="cls-12" d="M361.48,142.44c4.73-.51,8.16-4.76,7.65-9.49-.51-4.73-4.76-8.16-9.49-7.65s-8.16,4.76-7.65,9.49c.51,4.73,4.76,8.16,9.49,7.65ZM356.89,130.08c2.15-2.03,5.55-1.93,7.59.22,2.03,2.15,1.93,5.55-.22,7.59-2.15,2.03-5.55,1.93-7.59-.22s-1.93-5.55.22-7.59Z"/>
            </g>
            <g>
              <path class="cls-1" d="M380.79,132.68l-.1,3.4,3.18.09c.14.81.41,1.6.81,2.34l-2.26,2.13,2.33,2.47,2.16-2.04c.85.61,1.79,1.04,2.78,1.26l-.09,3.18,3.4.1.09-3.28c.67-.15,1.32-.39,1.94-.72l2.13,2.26,2.47-2.33-2.04-2.16c.61-.85,1.04-1.79,1.26-2.78l2.78.08.1-3.4-2.88-.08c-.19-.85-.53-1.68-1.02-2.44l2.16-2.04-2.33-2.47-2.26,2.13c-.83-.51-1.75-.85-2.69-1.02l.09-3.2-3.4-.1-.1,3.47c-.71.2-1.4.51-2.04.92l-2.04-2.16-2.47,2.33,2.13,2.26c-.37.6-.64,1.23-.83,1.89l-3.28-.1ZM389.27,132.62c1.25-1.18,3.23-1.12,4.4.13,1.18,1.25,1.12,3.23-.13,4.41-1.25,1.18-3.23,1.12-4.41-.13-1.18-1.25-1.12-3.23.13-4.41Z"/>
              <path class="cls-12" d="M391.94,139.8c2.75-.3,4.74-2.76,4.44-5.51-.3-2.75-2.76-4.74-5.51-4.44-2.75.3-4.74,2.76-4.44,5.51.3,2.75,2.76,4.74,5.51,4.44ZM389.27,132.62c1.25-1.18,3.23-1.12,4.4.13,1.18,1.25,1.12,3.23-.13,4.41-1.25,1.18-3.23,1.12-4.41-.13-1.18-1.25-1.12-3.23.13-4.41Z"/>
            </g>
          </g>
          <g>
            <path class="cls-11" d="M417.12,159.68h-2.1c-.54,0-.99-.44-.99-.99s.44-.99.99-.99h1.11v-1.11c0-.54.44-.99.99-.99s.99.44.99.99v2.1c0,.54-.44.99-.99.99Z"/>
            <path class="cls-11" d="M411.03,159.68h-4.23c-.54,0-.99-.44-.99-.99s.44-.99.99-.99h4.23c.54,0,.99.44.99.99s-.44.99-.99.99ZM402.81,159.68h-4.23c-.54,0-.99-.44-.99-.99s.44-.99.99-.99h4.23c.54,0,.99.44.99.99s-.44.99-.99.99ZM394.59,159.68h-4.23c-.54,0-.99-.44-.99-.99s.44-.99.99-.99h4.23c.54,0,.99.44.99.99s-.44.99-.99.99ZM386.37,159.68h-4.23c-.54,0-.99-.44-.99-.99s.44-.99.99-.99h4.23c.54,0,.99.44.99.99s-.44.99-.99.99ZM378.15,159.68h-4.23c-.54,0-.99-.44-.99-.99s.44-.99.99-.99h4.23c.54,0,.99.44.99.99s-.44.99-.99.99ZM369.93,159.68h-4.23c-.54,0-.99-.44-.99-.99s.44-.99.99-.99h4.23c.54,0,.99.44.99.99s-.44.99-.99.99ZM361.71,159.68h-4.23c-.54,0-.99-.44-.99-.99s.44-.99.99-.99h4.23c.54,0,.99.44.99.99s-.44.99-.99.99ZM353.49,159.68h-4.23c-.54,0-.99-.44-.99-.99s.44-.99.99-.99h4.23c.54,0,.99.44.99.99s-.44.99-.99.99ZM345.27,159.68h-4.23c-.54,0-.99-.44-.99-.99s.44-.99.99-.99h4.23c.54,0,.99.44.99.99s-.44.99-.99.99ZM337.05,159.68h-4.23c-.54,0-.99-.44-.99-.99s.44-.99.99-.99h4.23c.54,0,.99.44.99.99s-.44.99-.99.99Z"/>
            <path class="cls-11" d="M328.83,159.68h-2.1c-.54,0-.99-.44-.99-.99v-2.1c0-.54.44-.99.99-.99s.99.44.99.99v1.11h1.11c.54,0,.99.44.99.99s-.44.99-.99.99Z"/>
            <path class="cls-11" d="M326.73,153.54c-.54,0-.99-.44-.99-.99v-4.29c0-.54.44-.99.99-.99s.99.44.99.99v4.29c0,.54-.44.99-.99.99ZM326.73,145.21c-.54,0-.99-.44-.99-.99v-4.29c0-.54.44-.99.99-.99s.99.44.99.99v4.29c0,.54-.44.99-.99.99ZM326.73,136.87c-.54,0-.99-.44-.99-.99v-4.29c0-.54.44-.99.99-.99s.99.44.99.99v4.29c0,.54-.44.99-.99.99ZM326.73,128.54c-.54,0-.99-.44-.99-.99v-4.29c0-.54.44-.99.99-.99s.99.44.99.99v4.29c0,.54-.44.99-.99.99ZM326.73,120.2c-.54,0-.99-.44-.99-.99v-4.29c0-.54.44-.99.99-.99s.99.44.99.99v4.29c0,.54-.44.99-.99.99Z"/>
            <path class="cls-11" d="M326.73,111.87c-.54,0-.99-.44-.99-.99v-2.1c0-.54.44-.99.99-.99h2.1c.54,0,.99.44.99.99s-.44.99-.99.99h-1.11v1.11c0,.54-.44.99-.99.99Z"/>
            <path class="cls-11" d="M411.03,109.77h-4.23c-.54,0-.99-.44-.99-.99s.44-.99.99-.99h4.23c.54,0,.99.44.99.99s-.44.99-.99.99ZM402.81,109.77h-4.23c-.54,0-.99-.44-.99-.99s.44-.99.99-.99h4.23c.54,0,.99.44.99.99s-.44.99-.99.99ZM394.59,109.77h-4.23c-.54,0-.99-.44-.99-.99s.44-.99.99-.99h4.23c.54,0,.99.44.99.99s-.44.99-.99.99ZM386.37,109.77h-4.23c-.54,0-.99-.44-.99-.99s.44-.99.99-.99h4.23c.54,0,.99.44.99.99s-.44.99-.99.99ZM378.15,109.77h-4.23c-.54,0-.99-.44-.99-.99s.44-.99.99-.99h4.23c.54,0,.99.44.99.99s-.44.99-.99.99ZM369.93,109.77h-4.23c-.54,0-.99-.44-.99-.99s.44-.99.99-.99h4.23c.54,0,.99.44.99.99s-.44.99-.99.99ZM361.71,109.77h-4.23c-.54,0-.99-.44-.99-.99s.44-.99.99-.99h4.23c.54,0,.99.44.99.99s-.44.99-.99.99ZM353.49,109.77h-4.23c-.54,0-.99-.44-.99-.99s.44-.99.99-.99h4.23c.54,0,.99.44.99.99s-.44.99-.99.99ZM345.27,109.77h-4.23c-.54,0-.99-.44-.99-.99s.44-.99.99-.99h4.23c.54,0,.99.44.99.99s-.44.99-.99.99ZM337.05,109.77h-4.23c-.54,0-.99-.44-.99-.99s.44-.99.99-.99h4.23c.54,0,.99.44.99.99s-.44.99-.99.99Z"/>
            <path class="cls-11" d="M417.12,111.87c-.54,0-.99-.44-.99-.99v-1.11h-1.11c-.54,0-.99-.44-.99-.99s.44-.99.99-.99h2.1c.54,0,.99.44.99.99v2.1c0,.54-.44.99-.99.99Z"/>
            <path class="cls-11" d="M417.12,153.54c-.54,0-.99-.44-.99-.99v-4.29c0-.54.44-.99.99-.99s.99.44.99.99v4.29c0,.54-.44.99-.99.99ZM417.12,145.21c-.54,0-.99-.44-.99-.99v-4.29c0-.54.44-.99.99-.99s.99.44.99.99v4.29c0,.54-.44.99-.99.99ZM417.12,136.87c-.54,0-.99-.44-.99-.99v-4.29c0-.54.44-.99.99-.99s.99.44.99.99v4.29c0,.54-.44.99-.99.99ZM417.12,128.54c-.54,0-.99-.44-.99-.99v-4.29c0-.54.44-.99.99-.99s.99.44.99.99v4.29c0,.54-.44.99-.99.99ZM417.12,120.2c-.54,0-.99-.44-.99-.99v-4.29c0-.54.44-.99.99-.99s.99.44.99.99v4.29c0,.54-.44.99-.99.99Z"/>
          </g>
          <path class="cls-11" d="M298.84,173.2c-.54,0-.99-.44-.99-.99v-4.19c0-.54.44-.99.99-.99s.99.44.99.99v4.19c0,.54-.44.99-.99.99ZM298.84,165.06c-.54,0-.99-.44-.99-.99v-4.19c0-.54.44-.99.99-.99s.99.44.99.99v4.19c0,.54-.44.99-.99.99ZM298.84,156.92c-.54,0-.99-.44-.99-.99v-4.19c0-.54.44-.99.99-.99s.99.44.99.99v4.19c0,.54-.44.99-.99.99ZM298.84,148.78c-.54,0-.99-.44-.99-.99v-4.19c0-.54.44-.99.99-.99s.99.44.99.99v4.19c0,.54-.44.99-.99.99ZM298.84,140.64c-.54,0-.99-.44-.99-.99v-4.19c0-.54.44-.99.99-.99s.99.44.99.99v4.19c0,.54-.44.99-.99.99ZM326.73,135.23h-.74c-.54,0-.99-.44-.99-.99s.44-.99.99-.99h.74c.54,0,.99.44.99.99s-.44.99-.99.99ZM322.04,135.23h-4.19c-.54,0-.99-.44-.99-.99s.44-.99.99-.99h4.19c.54,0,.99.44.99.99s-.44.99-.99.99ZM313.9,135.23h-4.19c-.54,0-.99-.44-.99-.99s.44-.99.99-.99h4.19c.54,0,.99.44.99.99s-.44.99-.99.99ZM305.76,135.23h-4.19c-.54,0-.99-.44-.99-.99s.44-.99.99-.99h4.19c.54,0,.99.44.99.99s-.44.99-.99.99Z"/>
        </g>
      </g>
      <path class="cls-12" d="M50.55,249.29h0s.02.01.02.01h0Z"/>
      <polygon class="cls-12" points="50.54 249.3 50.48 249.39 50.5 249.3 50.54 249.3"/>
      <g>
        <g>
          <g>
            <rect class="cls-3" x="70.04" y="164.17" width="348.56" height="216.12" rx="14.04" ry="14.04"/>
            <path class="cls-13" d="M418.59,276.04v90.22c0,7.75-6.28,14.04-14.04,14.04H84.07c-7.75,0-14.04-6.28-14.04-14.04v-90.22h348.56Z"/>
          </g>
          <path class="cls-4" d="M403.11,187.77v168.93c0,4.97-4.03,9-9,9H94.52c-2.1,0-4.03-.72-5.56-1.93-.41-.32-.78-.68-1.13-1.06-1.44-1.59-2.31-3.7-2.31-6.02v-168.93c0-4.97,4.03-9,9-9h299.59c1.66,0,3.22.45,4.55,1.24,1.26.74,2.32,1.77,3.09,3.01.86,1.38,1.36,3.01,1.36,4.76Z"/>
        </g>
        <path class="cls-10" d="M451.15,372.79v1.2c0,5.98-1.92,11.51-5.18,16.01-4.97,6.87-13.05,11.34-22.18,11.34H64.83c-9.13,0-17.21-4.47-22.18-11.34-3.26-4.5-5.18-10.03-5.18-16.01v-1.2h413.68Z"/>
        <path class="cls-4" d="M197.95,372.79v.27c0,2.17,1.45,3.92,3.24,3.92h84.45c1.79,0,3.24-1.76,3.24-3.92v-.27h-90.93Z"/>
        <g>
          <path class="cls-5" d="M403.11,187.77v9.97H85.52v-9.97c0-1.92.6-3.69,1.62-5.15,1.62-2.33,4.32-3.85,7.38-3.85h299.59c3.06,0,5.76,1.52,7.37,3.85,1.03,1.46,1.62,3.23,1.62,5.15Z"/>
          <rect class="cls-4" x="157.17" y="186.22" width="170.01" height="5.04" rx=".75" ry=".75"/>
          <path class="cls-3" d="M116.57,188.74v1.87c0,.54-.58.87-1.04.6l-1.62-.93-1.62-.93c-.46-.27-.46-.94,0-1.21l1.62-.93,1.62-.93c.46-.27,1.04.07,1.04.6v1.87Z"/>
          <path class="cls-3" d="M124.99,188.74v1.87c0,.54.58.87,1.04.6l1.62-.93,1.62-.93c.46-.27.46-.94,0-1.21l-1.62-.93-1.62-.93c-.46-.27-1.04.07-1.04.6v1.87Z"/>
        </g>
        <path class="cls-6" d="M401.49,182.62H87.14c1.62-2.33,4.32-3.85,7.38-3.85h299.59c3.06,0,5.76,1.52,7.37,3.85Z"/>
      </g>
      <g>
        <g>
          <rect class="cls-1" x="185.18" y="133.61" width="100.66" height="21.83" rx="9.92" ry="9.92"/>
          <path class="cls-4" d="M275.07,138.04c-3.58,0-6.49,2.91-6.49,6.49s2.91,6.49,6.49,6.49,6.49-2.91,6.49-6.49-2.91-6.49-6.49-6.49ZM275.34,146.92v-2.27h2.93c-.02.8-.13,1.57-.35,2.27h-2.59ZM277.17,149.51c.48-.6.86-1.3,1.13-2.07h1.98c-.83,1.48-2.24,2.53-3.88,2.9.28-.25.54-.53.78-.83ZM277.74,147.44c-.24.64-.57,1.22-.97,1.73-.62.79-1.24,1.2-1.44,1.31v-3.04s2.41,0,2.41,0ZM275.34,141.33v-2.77c.08,0,.15,0,.23.01.32.28,1.34,1.22,2.03,2.75h-2.27ZM278.17,141.33c-.23-.56-.53-1.09-.87-1.59-.25-.36-.53-.7-.82-1.01,1.49.36,2.8,1.3,3.63,2.61h-1.94ZM275.34,144.13v-2.27h2.48c.27.73.42,1.5.45,2.27h-2.93ZM278.79,144.13c-.03-.77-.17-1.54-.42-2.27h2.04c.36.71.57,1.48.62,2.27h-2.24ZM281.04,144.65c-.02.79-.18,1.55-.5,2.27h-2.07c.2-.71.31-1.47.32-2.27h2.25ZM271.75,146.92h-2.13c-.32-.72-.48-1.48-.5-2.27h2.31c.02.8.13,1.56.32,2.27ZM272.61,141.33c.2-.45.44-.88.73-1.28.55-.79,1.09-1.28,1.32-1.47.05,0,.11,0,.17,0v2.77h-2.21ZM274.81,141.86v2.27h-2.87c.03-.77.18-1.54.45-2.27h2.42ZM270.04,141.33c.85-1.33,2.18-2.28,3.71-2.62-.3.32-.58.66-.84,1.03-.35.5-.64,1.04-.87,1.59h-2ZM274.81,144.65v2.27h-2.53c-.21-.7-.33-1.47-.35-2.27h2.87ZM269.12,144.13c.05-.8.26-1.56.62-2.27h2.1c-.25.74-.39,1.5-.42,2.27h-2.3ZM271.91,147.44c.27.77.65,1.46,1.13,2.07.25.31.51.6.8.85-1.66-.35-3.12-1.43-3.96-2.92h2.04ZM274.81,147.44v3.01c-.39-.25-1.63-1.14-2.35-3.01h2.35Z"/>
        </g>
        <path class="cls-4" d="M258.69,138.29c3.4,0,6.17,2.77,6.17,6.17s-2.77,6.17-6.17,6.17h-62.35c-3.4,0-6.17-2.77-6.17-6.17s2.77-6.17,6.17-6.17h62.35M258.69,137.65h-62.35c-3.75,0-6.81,3.05-6.81,6.81s3.05,6.81,6.81,6.81h62.35c3.75,0,6.81-3.05,6.81-6.81s-3.05-6.81-6.81-6.81h0Z"/>
      </g>
      <g>
        <g>
          <rect class="cls-5" x="123.25" y="212.44" width="245.29" height="128.22" rx="7.32" ry="7.32"/>
          <path class="cls-11" d="M368.54,219.75v5.33H123.25v-5.33c0-4.04,3.28-7.32,7.32-7.32h230.65c4.04,0,7.32,3.28,7.32,7.32Z"/>
          <g>
            <path class="cls-3" d="M344.98,218.64c0,1.37-1.11,2.48-2.48,2.48s-2.48-1.11-2.48-2.48,1.11-2.48,2.48-2.48,2.48,1.11,2.48,2.48Z"/>
            <path class="cls-12" d="M352.91,218.64c0,1.37-1.11,2.48-2.48,2.48s-2.48-1.11-2.48-2.48,1.11-2.48,2.48-2.48,2.48,1.11,2.48,2.48Z"/>
            <path class="cls-1" d="M360.85,218.64c0,1.37-1.11,2.48-2.48,2.48s-2.48-1.11-2.48-2.48,1.11-2.48,2.48-2.48,2.48,1.11,2.48,2.48Z"/>
          </g>
        </g>
        <g>
          <path class="cls-11" d="M139.54,237.49h15.05c2.55,0,4.63,2.07,4.63,4.63v15.05c0,2.55-2.07,4.63-4.63,4.63h-15.05c-2.55,0-4.63-2.07-4.63-4.63v-15.05c0-2.55,2.07-4.63,4.63-4.63Z"/>
          <rect class="cls-1" x="131.68" y="234.01" width="24.31" height="24.31" rx="4.63" ry="4.63"/>
          <path class="cls-4" d="M148.3,243.94l-6.64,2.28,6.64,2.28v3.73l-11.18-4.06v-3.9l11.18-4.06v3.73Z"/>
        </g>
        <g>
          <path class="cls-11" d="M179.68,237.49h15.05c2.55,0,4.63,2.07,4.63,4.63v15.05c0,2.55-2.07,4.63-4.63,4.63h-15.05c-2.55,0-4.63-2.07-4.63-4.63v-15.05c0-2.55,2.07-4.63,4.63-4.63Z"/>
          <path class="cls-1" d="M176.46,234.01h15.05c2.55,0,4.63,2.07,4.63,4.63v15.05c0,2.55-2.07,4.63-4.63,4.63h-15.05c-2.55,0-4.63-2.07-4.63-4.63v-15.05c0-2.55,2.07-4.63,4.63-4.63Z"/>
          <path class="cls-4" d="M184.68,238.35h3.36l-5.54,15.82h-3.36l5.54-15.82Z"/>
        </g>
        <g>
          <path class="cls-11" d="M218.4,237.49h15.05c2.55,0,4.63,2.07,4.63,4.63v15.05c0,2.55-2.07,4.63-4.63,4.63h-15.05c-2.55,0-4.63-2.07-4.63-4.63v-15.05c0-2.55,2.07-4.63,4.63-4.63Z"/>
          <path class="cls-1" d="M215.18,234.01h15.05c2.55,0,4.63,2.07,4.63,4.63v15.05c0,2.55-2.07,4.63-4.63,4.63h-15.05c-2.55,0-4.63-2.07-4.63-4.63v-15.05c0-2.55,2.07-4.63,4.63-4.63Z"/>
          <path class="cls-4" d="M217.22,240.21l11.18,4.06v3.9l-11.18,4.06v-3.73l6.64-2.28-6.64-2.28v-3.73Z"/>
        </g>
        <g>
          <rect class="cls-11" x="334.31" y="305.69" width="24.31" height="24.31" rx="4.63" ry="4.63"/>
          <rect class="cls-1" x="331.09" y="302.22" width="24.31" height="24.31" rx="4.63" ry="4.63"/>
          <path class="cls-4" d="M343.02,306.45c-4.37,0-7.93,3.56-7.93,7.93s3.56,7.93,7.93,7.93,7.93-3.56,7.93-7.93-3.56-7.93-7.93-7.93ZM343.33,317.31v-2.78h3.58c-.02.98-.16,1.92-.42,2.78h-3.16ZM345.58,320.47c.58-.74,1.05-1.59,1.38-2.53h2.41c-1.02,1.81-2.73,3.09-4.75,3.55.34-.3.66-.65.95-1.02ZM346.28,317.95c-.3.78-.7,1.49-1.18,2.11-.76.97-1.52,1.46-1.76,1.61v-3.72s2.94,0,2.94,0ZM343.33,310.48v-3.38c.09,0,.19.01.28.02.4.34,1.64,1.49,2.49,3.36h-2.77ZM346.8,310.48c-.28-.68-.64-1.34-1.07-1.95-.31-.44-.64-.86-1-1.24,1.82.44,3.42,1.59,4.44,3.18h-2.37ZM343.33,313.89v-2.78h3.03c.33.89.51,1.83.55,2.78h-3.58ZM347.55,313.89c-.03-.94-.21-1.88-.51-2.78h2.49c.44.87.69,1.8.76,2.78h-2.74ZM350.3,314.53c-.02.97-.22,1.9-.61,2.78h-2.53c.24-.87.38-1.8.4-2.78h2.75ZM338.95,317.31h-2.61c-.39-.88-.59-1.81-.61-2.78h2.82c.02.98.15,1.91.4,2.78ZM340,310.48c.25-.55.54-1.07.89-1.57.67-.96,1.33-1.57,1.61-1.8.07,0,.13,0,.2-.01v3.38h-2.7ZM342.7,311.12v2.78h-3.5c.04-.95.22-1.88.55-2.78h2.96ZM336.86,310.48c1.03-1.63,2.67-2.78,4.53-3.2-.37.39-.71.81-1.02,1.26-.42.61-.78,1.27-1.07,1.95h-2.44ZM342.7,314.53v2.78h-3.09c-.26-.86-.4-1.79-.42-2.78h3.51ZM335.74,313.89c.06-.97.32-1.91.76-2.78h2.56c-.3.9-.48,1.83-.51,2.78h-2.81ZM339.15,317.95c.33.94.8,1.79,1.38,2.53.3.38.63.73.98,1.04-2.03-.43-3.82-1.74-4.84-3.57h2.49ZM342.7,317.95v3.67c-.48-.3-1.99-1.39-2.87-3.67h2.87Z"/>
        </g>
        <g>
          <path class="cls-11" d="M235.28,274.82h-100.8c-1.55,0-2.8-1.25-2.8-2.8h0c0-1.55,1.25-2.8,2.8-2.8h100.8c1.55,0,2.8,1.25,2.8,2.8h0c0,1.55-1.25,2.8-2.8,2.8Z"/>
          <path class="cls-11" d="M235.28,285.19h-100.8c-1.55,0-2.8-1.25-2.8-2.8h0c0-1.55,1.25-2.8,2.8-2.8h100.8c1.55,0,2.8,1.25,2.8,2.8h0c0,1.55-1.25,2.8-2.8,2.8Z"/>
          <path class="cls-11" d="M235.28,295.55h-100.8c-1.55,0-2.8-1.25-2.8-2.8h0c0-1.55,1.25-2.8,2.8-2.8h100.8c1.55,0,2.8,1.25,2.8,2.8h0c0,1.55-1.25,2.8-2.8,2.8Z"/>
          <path class="cls-11" d="M235.28,305.92h-100.8c-1.55,0-2.8-1.25-2.8-2.8h0c0-1.55,1.25-2.8,2.8-2.8h100.8c1.55,0,2.8,1.25,2.8,2.8h0c0,1.55-1.25,2.8-2.8,2.8Z"/>
          <path class="cls-11" d="M235.28,316.28h-100.8c-1.55,0-2.8-1.25-2.8-2.8h0c0-1.55,1.25-2.8,2.8-2.8h100.8c1.55,0,2.8,1.25,2.8,2.8h0c0,1.55-1.25,2.8-2.8,2.8Z"/>
          <rect class="cls-11" x="131.68" y="321.05" width="106.4" height="5.6" rx="2.8" ry="2.8"/>
        </g>
        <g>
          <path class="cls-11" d="M321.84,300.32h-68.69c-1.54,0-2.86,1.21-2.89,2.75-.03,1.57,1.23,2.85,2.8,2.85h68.79c1.55,0,2.8-1.25,2.8-2.8h0c0-1.55-1.25-2.8-2.8-2.8Z"/>
          <path class="cls-11" d="M321.84,310.68h-68.69c-1.54,0-2.86,1.21-2.89,2.75-.03,1.57,1.23,2.85,2.8,2.85h68.79c1.55,0,2.8-1.25,2.8-2.8h0c0-1.55-1.25-2.8-2.8-2.8Z"/>
          <path class="cls-11" d="M321.84,321.05h-68.69c-1.54,0-2.86,1.21-2.89,2.75-.03,1.57,1.23,2.85,2.8,2.85h68.79c1.55,0,2.8-1.25,2.8-2.8h0c0-1.55-1.25-2.8-2.8-2.8Z"/>
        </g>
        <g>
          <path class="cls-11" d="M355.39,237.43v51.91c0,.11,0,.22-.01.32-.05.58-.23,1.12-.51,1.58-.55.91-1.49,1.51-2.55,1.51h-99.18c-1.2,0-2.24-.76-2.74-1.87-.21-.46-.33-.99-.33-1.54v-51.91c0-.42.07-.82.19-1.2.18-.54.49-1.02.88-1.39.54-.51,1.24-.83,2.01-.83h99.18c.61,0,1.18.2,1.66.54.45.32.82.77,1.06,1.29.22.47.35,1.01.35,1.58Z"/>
          <path class="cls-5" d="M355.38,289.66c-.05.58-.23,1.12-.51,1.58l-52.58-27.65-1.76-.93-50.27-26.43c.18-.54.49-1.02.88-1.39l51.15,26.9,1.76.93h0l51.33,27Z"/>
          <path class="cls-5" d="M355.04,235.85l-50.99,26.82h0l-1.76.93-51.89,27.29c-.21-.46-.33-.99-.33-1.54v-.14l50.46-26.54,1.76-.93,51.69-27.18c.45.32.82.77,1.06,1.29Z"/>
        </g>
      </g>
      <g>
        <ellipse class="cls-5" cx="95.23" cy="463.85" rx="40.53" ry="7.9"/>
        <g>
          <path class="cls-14" d="M72.45,331.58l-5.82,3.59c-2.5-1.55-5.34-2.46-8.25-2.66-.52-1.4-.82-2.98-.82-4.76,0-14.38,11.33-40.94,11.33-40.94l-1.03,29.68c-.76,7.57,1.68,12.24,4.59,15.09Z"/>
          <g>
            <path class="cls-12" d="M89.01,321.36l-22.38,13.81c-5.59-3.47-12.88-3.72-18.85-.03-7.45,4.6-10.35,13.77-7.31,21.66.39,1.02.88,2.01,1.48,2.98,5.19,8.41,16.22,11.03,24.64,5.84,2.99-1.84,5.24-4.42,6.68-7.36,1.44-2.93,2.05-6.23,1.75-9.51l78.8-48.62.92,1.49,19.45-.57,9.16-17,.06-.12-1.56-3.1-4.98,2.51-1.05.53-.78.29-5.26,9.75-11.07.33-2.91-4.71-2.91-4.71.17-.31,5.09-9.44,11.07-.33,3.98-7.38-3.33.1-16.12.47-9.23,17.13.92,1.49-56.42,34.81ZM61.79,341.81l3.36,5.44,1.75,2.84-4.62,8.56-9.72.28-5.11-8.28.17-.31,4.45-8.26,9.72-.28Z"/>
            <path class="cls-1" d="M89.01,321.36l-22.38,13.81c-5.59-3.47-12.88-3.72-18.85-.03-7.45,4.6-10.35,13.77-7.31,21.66,5.24,8.28,16.17,10.82,24.53,5.67,2.99-1.84,5.24-4.42,6.68-7.36,1.44-2.93,2.05-6.23,1.75-9.51l78.8-48.62.92,1.49,19.45-.57,7.48-13.89,1.75-3.24-8.38.25-5.26,9.75-11.07.33-2.91-4.71-1.16-1.88-1.75-2.84,5.26-9.75,11.07-.33,2.23-4.14-16.12.47-9.23,17.13.92,1.49-56.42,34.81ZM60.21,338.67l5.11,8.28-.17.31-4.45,8.25-9.72.28-3.36-5.44-1.75-2.84,4.62-8.57,9.72-.28Z"/>
          </g>
          <g>
            <path class="cls-1" d="M99.65,260.59c0,1.84,1.5,3.33,3.33,3.33s3.33-1.5,3.33-3.33c0-.23-.02-.46-.07-.68-.05-.22-.11-.43-.2-.63h0c-.51-1.19-1.69-2.02-3.06-2.02-.21,0-.42.02-.62.06h0c-.36.07-.7.19-1.01.36-1.02.57-1.71,1.66-1.71,2.91ZM100.17,260.59c0-1.24.81-2.3,1.92-2.67.28-.1.58-.15.89-.15.22,0,.43.03.63.07.49.11.94.36,1.3.7.37.35.64.8.78,1.3.07.24.1.49.1.74,0,1.55-1.26,2.81-2.81,2.81s-2.81-1.26-2.81-2.81Z"/>
            <g>
              <path class="cls-9" d="M86.12,270.71v6.62s1.97,3.38,4.65,3.6c2.67.23,5.04-2.9,5.04-2.9v-6.86l-9.69-.47Z"/>
              <path class="cls-7" d="M93.14,272.31s.43,2.35,2.67,3.21v-3.04l-2.67-.17Z"/>
            </g>
            <path class="cls-9" d="M95.05,273.62c-9.98,2.82-13.25-4.89-14.65-9.77-.15-.54-.29-1.14-.42-1.79,0-.02,0-.05-.02-.08-.14-.72-.25-1.49-.35-2.28-.07-.59-.14-1.18-.19-1.78-.14-1.46-.23-2.92-.3-4.22-.14-2.97,1.63-5.7,4.41-6.76,4.01-1.54,10.09-2.76,15.85.51,2.13,1.21,3.46,3.44,3.51,5.89,0,0,1.01,3.91.53,5.66-.48,1.75-.58,2.28-.74,4.62s-1.48,7.95-2.86,9.12c-1.38,1.17-4.78.89-4.78.89Z"/>
            <g>
              <path class="cls-7" d="M98.76,263.28c-.13-.03-.24-.15-.25-.29-.12-2.13-2.02-3.41-2.03-3.42-.14-.1-.19-.29-.09-.44s.29-.19.44-.09c.09.06,2.18,1.46,2.32,3.91,0,.17-.12.32-.3.33-.03,0-.06,0-.09,0Z"/>
              <path class="cls-7" d="M96.89,261.8c-.06-.01-.11-.04-.16-.09-.12-.12-.12-.32,0-.45.02-.02.51-.5,1.36-.67.17-.04.34.07.37.25s-.07.34-.25.37c-.65.13-1.04.5-1.04.5-.08.08-.19.11-.29.08Z"/>
            </g>
            <path class="cls-10" d="M78.78,258.39c.4,5.29,2.72,10.99,2.72,10.99,2.53,5.59,7.25,4.56,9.79,3.8,1.86-.56,4.39-2.62,5.42-3.57.79-.73,1.27-1.81,1.55-2.7.2-.65-.27-1.31-.95-1.37-1.19-.11-2.42-1.12-2.72-3.92-.5-4.74,2.66-4.75,2.66-4.75,1.92-.17,2.94,2.23,2.94,2.23,0,0,1.18-1.54.94-4.06-.21-2.22,2.02-.64,2.02-.64,0,0,3.14-2.73,3.21-5.42.07-2.69-1.49-2.79-2.9-3.48-1.41-.69,1.84-3.23.29-4.58-1.56-1.34-3.32-1.48-4.6-.78-1.27.71-1.7-2.76-3.64-2.83-1.94-.07-3.18,2.05-4.54,1.2s-4.83-2.12-6.38.49c-1.56,2.62-1.98,3.29-3.25,3.43-1.27.14-4.81,2.58-4.1,6.61.71,4.03,1.32,6.25,1.56,9.33Z"/>
            <path class="cls-1" d="M98.05,256.95c.33.1.62.27.87.47.64-.07,1.31,0,1.98.14.15.04.3.07.45.12.25.07.49.15.73.24.5.18.98.4,1.43.63.94.47,1.72.98,2.18,1.3.27.19.42.31.43.31l.12-.25c-.05-.22-.11-.43-.2-.63h0c-.26-.18-.65-.45-1.13-.73-.38-.23-.82-.47-1.3-.7-.02,0-.03-.02-.05-.03-.38-.18-.78-.35-1.2-.51h0c-.42-.15-.87-.29-1.31-.39-1.01-.22-2.04-.27-3,.02Z"/>
          </g>
          <g>
            <g>
              <path class="cls-1" d="M111.41,468.06c.73.1,1.61.14,2.36-.03l1.11-.36,1.82-.55s6.53-2.56,8.84-4.81c2.31-2.25,1.9-4.72-1.7-5.92-3.6-1.21-6.82-.06-8.75-.83,0,0-5.77.49-5.45,3.57-.07,2.87-.25,4.38.14,7.28.11.86.79,1.54,1.65,1.65Z"/>
              <path class="cls-4" d="M114.6,456.94c-.1-.02-.19-.08-.25-.18-.11-.18-.05-.42.13-.53.06-.04,1.5-.91,2.76-.86,1.68.06,2.3,1.37,2.32,1.42.09.19,0,.42-.19.51-.19.09-.42,0-.51-.19-.02-.04-.45-.93-1.65-.98-1.03-.04-2.32.74-2.33.75-.09.05-.19.07-.28.05Z"/>
              <path class="cls-4" d="M115.9,456.8c-.1-.02-.19-.08-.25-.18-.11-.18-.05-.42.13-.53.06-.04,1.5-.91,2.76-.86,1.68.06,2.3,1.37,2.32,1.42.09.19,0,.42-.19.51-.19.09-.42,0-.51-.19-.02-.04-.45-.93-1.65-.98-1.03-.04-2.32.74-2.33.75-.09.05-.19.07-.28.05Z"/>
              <path class="cls-4" d="M117.16,456.53c-.1-.02-.19-.08-.25-.18-.11-.18-.05-.42.13-.53.06-.04,1.5-.91,2.76-.86,1.68.06,2.3,1.37,2.32,1.42.09.19,0,.42-.19.51-.19.09-.42,0-.51-.19-.02-.04-.45-.93-1.65-.98-1.03-.04-2.32.74-2.33.75-.09.05-.19.07-.28.05Z"/>
            </g>
            <path class="cls-9" d="M116.4,451.6l-.35,6.06c-2.24.62-3.92.9-5.19-.08l-.36-6.42,5.91.45Z"/>
            <g>
              <path class="cls-3" d="M118.24,454.11c-3.35,2.07-8.72.86-8.72.86.64-.11-4.68-39.93-5.38-45.92-.65-5.53-7.54-21.6-10.44-30.71-.2-.63-.38-1.23-.54-1.79-.23-.8-.44-1.56-.65-2.28-1.28-4.46-2.12-7.3-2.12-7.3l19.14-4.18c.57,2.15,1.11,4.26,1.62,6.35.11.46.22.91.33,1.36.07.29.13.57.2.86,11.74,49.86,6.57,82.75,6.57,82.75Z"/>
              <path class="cls-13" d="M111.47,370.49c-6.57,2.41-13,3.49-18.96,3.77-1.28-4.46-2.12-7.3-2.12-7.3l19.14-4.18c.57,2.15,1.11,4.26,1.62,6.35.11.46.22.91.33,1.36Z"/>
            </g>
          </g>
          <g>
            <g>
              <path class="cls-1" d="M61.79,466.73c.67.3,1.51.59,2.27.63l1.16-.04,1.9-.02s6.98-.64,9.83-2.15c2.85-1.51,3.14-4,.02-6.16-3.12-2.16-6.53-1.97-8.16-3.25,0,0-5.67-1.15-6.22,1.9-.87,2.73-1.46,4.14-1.9,7.03-.13.86.33,1.7,1.12,2.05Z"/>
              <path class="cls-4" d="M67.96,456.94c-.09-.05-.16-.13-.19-.24-.06-.2.06-.42.27-.47.07-.02,1.69-.45,2.89-.05,1.6.53,1.82,1.96,1.83,2.02.03.21-.11.41-.32.44-.21.03-.41-.11-.44-.33,0-.04-.18-1.02-1.31-1.4-.98-.33-2.43.06-2.45.07-.1.03-.2.01-.28-.03Z"/>
              <path class="cls-4" d="M69.24,457.17c-.09-.05-.16-.13-.19-.24-.06-.2.06-.42.27-.47.07-.02,1.69-.45,2.89-.05,1.6.53,1.82,1.96,1.83,2.02.03.21-.11.41-.32.44-.21.03-.41-.11-.44-.33,0-.04-.18-1.02-1.31-1.4-.98-.33-2.43.06-2.45.07-.1.03-.2.01-.28-.03Z"/>
              <path class="cls-4" d="M70.53,457.27c-.09-.05-.16-.13-.19-.24-.06-.2.07-.42.27-.47.07-.02,1.69-.45,2.89-.05,1.6.53,1.82,1.96,1.83,2.02.03.21-.11.41-.32.44-.21.03-.41-.11-.44-.33,0-.04-.18-1.02-1.31-1.4-.98-.33-2.43.06-2.45.07-.1.03-.2.01-.28-.03Z"/>
            </g>
            <path class="cls-9" d="M71.18,452.32l-2.03,5.72c-2.32-.03-4.02-.23-4.96-1.53l1.45-6.27,5.55,2.08Z"/>
            <g>
              <path class="cls-3" d="M89.4,365.11c-.05,2.22-.13,4.4-.23,6.55-.04.87-.08,1.76-.13,2.66-.09,1.55-.19,3.15-.31,4.77-.94,12.97-2.76,27.6-4.17,34.95-.94,4.87-12.31,41.19-12.31,41.19-3.74,1.03-8.48-1.54-8.61-1.61.65,0,5.42-43.6,6.92-46.79.94-2.01.08-7.29-.62-29.85-.03-1.04-.06-2.12-.1-3.24-.02-.74-.04-1.44-.05-2.11-.08-4.79.06-7.86.06-7.86l19.55,1.33Z"/>
              <path class="cls-13" d="M69.86,363.78l19.55,1.33c-.05,2.22-.13,4.4-.23,6.55-.04.87-.08,1.76-.13,2.66-7.62-.04-14.29-1.32-19.25-2.69-.08-4.79.06-7.86.06-7.86Z"/>
            </g>
          </g>
          <g>
            <path class="cls-14" d="M111.47,363.89s-11.66,4.58-22.07,4.63c-10.4.05-20.36-.94-20.36-.94,0,0-.87-15.72-1.44-33.29-.04-1.15-.07-2.31-.11-3.47-.04-1.29-.07-2.58-.11-3.87-.03-1.16-.06-2.31-.08-3.47-.03-1.48-.06-2.95-.09-4.41-.02-1.17-.04-2.32-.05-3.46-.16-13.24-.79-25.18,1.34-27.86,4.38-5.51,17.61-11.04,17.61-11.04,2.94.83,6.25,1.11,10,.72,0,0,7.41,5.6,12.6,9.38,4.1,2.99.87,13.67,1.09,28.34.02,1.12.04,2.26.06,3.41,0,.37.02.75.02,1.13.02,1.02.05,2.11.08,3.27.03,1.08.06,2.22.1,3.4.04,1.24.07,2.53.12,3.85.04,1.12.07,2.26.11,3.41.48,14.18,1.17,30.26,1.17,30.26Z"/>
            <path class="cls-1" d="M86.08,284.23c6.45.6,10.73-2.82,10.93-2.98.16-.13.18-.36.05-.52-.13-.16-.36-.18-.52-.05-.05.04-5.04,4.02-12.14,2.56-.2-.04-.4.09-.44.29-.04.2.09.4.29.44.63.13,1.24.22,1.83.27Z"/>
            <g>
              <path class="cls-1" d="M109.87,318.57c-8.88,1.71-16.8,2.29-23.46,2.29-8.9,0-15.54-1.04-19.2-1.79-.02-1.17-.04-2.32-.05-3.46,5.57,1.19,21.47,3.71,42.65-.45.02,1.12.04,2.26.06,3.41Z"/>
              <path class="cls-1" d="M110.07,326.37c-8.96,1.74-16.95,2.33-23.65,2.33-8.77,0-15.34-1-19.03-1.75-.03-1.16-.06-2.31-.08-3.47,5.71,1.21,21.58,3.66,42.67-.51.03,1.08.06,2.22.1,3.4Z"/>
              <path class="cls-1" d="M110.3,333.63c-9.05,1.77-17.12,2.37-23.88,2.37-8.6,0-15.09-.96-18.81-1.71-.04-1.15-.07-2.31-.11-3.47,5.89,1.22,21.73,3.59,42.69-.6.04,1.12.07,2.26.11,3.41Z"/>
            </g>
          </g>
          <path class="cls-14" d="M109.62,287.75s18.29,28.36,21.3,26.5c4.55-2.81,8.44-5.21,8.44-5.21l4.3-2.65s-2.55,16.62-12.63,19.96c-6.33,2.1-23.5-19.5-23.5-19.5,0,0,0-14.63,2.09-19.11Z"/>
        </g>
      </g>
      <g>
        <path class="cls-1" d="M293.47,346.35c-19.52-26.24-31.84-50.44-31.84-50.44l.62,18.14s18.55,29.88,24.34,36.09c2.31,0,6.88-.79,6.88-3.78Z"/>
        <g>
          <path class="cls-14" d="M245.11,291.55s-3.22.86-6.35,1.65c-2.88.72-4.48,1.56-4.48,1.56,0,0-.28,27.54,0,35.9.28,8.36-2.42,16.03-1.89,20.91,0,0,23.89,1.69,28.98-.33,0,0-1.97-21.5.25-27.54,2.26-6.13,3.45-10.41,2.92-12.91-1.36-6.42-2.98-7.38-2.56-13.29.42-5.91-16.88-5.94-16.88-5.94Z"/>
          <path class="cls-1" d="M255.45,301.49c-6.48,0-10.42-3.81-10.6-3.99-.15-.14-.15-.38,0-.52s.38-.15.52,0c.05.04,4.64,4.47,11.85,3.68.2-.02.39.12.41.33.02.2-.12.39-.33.41-.64.07-1.25.1-1.85.1Z"/>
          <path class="cls-1" d="M239.99,335.8c-.2,0-.36-.16-.37-.36,0-.2.15-.38.36-.38.1,0,9.96-.46,16.74-9.41.12-.16.36-.19.52-.07.16.12.2.36.07.52-6.99,9.24-17.2,9.7-17.3,9.7,0,0,0,0-.01,0Z"/>
          <path class="cls-1" d="M239.66,339.3c-.78,0-1.23-.05-1.25-.05-.2-.02-.35-.21-.33-.41.02-.2.2-.35.41-.33.1.01,9.92,1,17.93-6.86.15-.14.38-.14.52,0,.14.15.14.38,0,.52-6.56,6.44-14.31,7.12-17.29,7.12Z"/>
        </g>
        <g>
          <g>
            <polygon class="cls-9" points="334.88 365.32 341.19 367.55 339.06 373.28 332.25 371.3 334.88 365.32"/>
            <g>
              <path class="cls-1" d="M340.25,368.35s-1.39-2.12-.89-3.22,10.59-7.27,12.26-10.04c1.66-2.77,3.64-1.39,4.57-.43.92.96-9.12,23.63-9.12,23.63,0,0-7.15-1.89-8.99-3.42-1.84-1.53,1.83-4,2.18-6.51Z"/>
              <g>
                <path class="cls-4" d="M346.84,365.3c0,.12-.06.23-.16.31-.19.16-.47.14-.63-.05-.05-.06-1.3-1.55-1.47-3-.23-1.93,1.16-2.87,1.22-2.9.2-.14.48-.08.62.13.13.2.08.48-.13.62-.04.03-.98.68-.82,2.06.14,1.18,1.26,2.52,1.27,2.53.08.09.11.2.1.31Z"/>
                <path class="cls-4" d="M345.21,366.12c0,.12-.06.23-.16.31-.19.16-.47.14-.63-.05-.05-.06-1.3-1.55-1.47-3-.23-1.93,1.16-2.87,1.22-2.9.21-.14.48-.08.62.13.13.2.08.48-.13.62-.04.03-.98.68-.82,2.06.14,1.19,1.25,2.52,1.27,2.53.08.09.11.2.1.31Z"/>
                <path class="cls-4" d="M348.41,363.96c0,.12-.06.23-.16.31-.19.16-.47.14-.63-.05-.05-.06-1.3-1.55-1.47-3-.23-1.93,1.16-2.87,1.22-2.9.2-.13.48-.08.62.13.13.2.08.48-.13.62-.04.03-.98.68-.82,2.06.14,1.19,1.25,2.52,1.27,2.53.08.09.11.2.1.31Z"/>
              </g>
            </g>
          </g>
          <path class="cls-10" d="M251.12,353.99s25.49-7.42,38.25-7.93c12.77-.5,47.14,18.47,47.14,18.47.82,1.99.28,4.21-1.05,6.21-.19.29-.4.56-.61.82-.47.6-1.01,1.15-1.61,1.68,0,0-25.38-3.25-42.33-12.24,0,0-23.8,5.93-37.51,5.55,0,0-5.65-4.72-2.27-12.55"/>
        </g>
        <g>
          <g>
            <circle class="cls-10" cx="251.37" cy="270.25" r="13.58" transform="translate(-117.47 256.9) rotate(-45)"/>
            <circle class="cls-10" cx="246.41" cy="256.97" r="8.32"/>
            <g>
              <path class="cls-7" d="M261.1,274s2.06-2.16,3.25-.1c1.18,2.06-1.29,7.57-4.51,5.86l1.26-5.76Z"/>
              <path class="cls-4" d="M261.38,279.51c-.03.34.22.64.55.67.34.03.64-.22.67-.55.03-.34-.22-.64-.55-.67-.34-.03-.64.22-.67.55Z"/>
              <path class="cls-2" d="M260.74,278.07c.12.01.24-.06.29-.17.69-1.71,2.67-2.24,2.69-2.24.15-.04.24-.19.2-.33-.04-.14-.2-.23-.35-.19-.09.02-2.28.6-3.07,2.57-.06.14.02.3.16.35.02,0,.05.02.08.02Z"/>
              <path class="cls-2" d="M262.76,277.37c.05,0,.11,0,.16-.03.14-.07.19-.23.12-.36-.01-.02-.3-.55-.99-.92-.14-.07-.31-.03-.39.1-.08.13-.03.29.11.37.53.29.76.69.76.69.05.08.13.14.23.15Z"/>
            </g>
            <path class="cls-9" d="M245.78,284.56l-.67,6.99s3.01,2.82,5.52,3.28c2.51.46,3.67-2.44,3.67-2.44l.62-6.5-9.14-1.32Z"/>
            <path class="cls-7" d="M245.71,285.24l-.27,2.79c1.52,2.05,4.47,3.01,9,2.77l.41-4.24-9.14-1.32Z"/>
            <path class="cls-9" d="M261.96,276.76c-.15.67-.31,1.34-.49,2.02-1.24,4.47-4.58,9.1-8.29,9.58-8.01,1.03-10.67-5.43-11.49-10.09-.09-.52.22-1.07.17-1.68-.12-1.44-.54-3.1-.52-4.7.02-1.11.06-2.2.1-3.18.14-2.77,1.98-5.16,4.57-5.91,3.74-1.09,9.32-1.7,14.21,1.83,1.81,1.31,2.81,3.5,2.63,5.78-.13,1.74-.39,4.01-.9,6.36Z"/>
            <path class="cls-7" d="M252.06,279.36c-.15-.01-.26-.13-.28-.28-.01-.17.11-.31.28-.33l1.06-.08-1.07-3.97c-.04-.16.05-.33.22-.37.16-.04.33.05.37.22l1.27,4.69-1.8.13s-.03,0-.05,0Z"/>
            <path class="cls-10" d="M259.67,268.82c2.93,1.69,2.03,6.31,1.83,9.81,0,.14.76-2.5.84-2.55.52-2.4.79-4.71.93-6.48.18-2.32-.89-4.56-2.8-5.9-5.17-3.62-11.04-3.01-14.98-1.92-2.73.76-4.66,3.18-4.8,6.01-.05,1-.09,2.11-.1,3.24.48.35,1.71.61,1.68,1.43-.07,2.17-.23,5.86.22,5.74.53-.14,1.16-5.08.93-6.66,0,0,.81-1.07,3.77-1.9,3.8-1.06,7.52-2.81,7.52-2.81,0,0,1.47-.7,2.09-1.57,0,0,.63,2.26,2.86,3.55Z"/>
            <path class="cls-10" d="M256.63,274.79c-.06.67.23,1.25.66,1.29s.82-.47.89-1.14c.06-.67-.23-1.25-.66-1.29-.43-.04-.82.47-.89,1.14Z"/>
            <path class="cls-10" d="M247.54,273.95c-.06.67.23,1.25.66,1.29s.82-.47.89-1.14c.06-.67-.23-1.25-.66-1.29-.43-.04-.82.47-.89,1.14Z"/>
            <path class="cls-10" d="M259.19,271.45c-.61-.18-1.84-.5-3.19-.58-.35-.02-.66.22-.64.5h0c.02.23.24.41.53.41.92.02,3.3.26,4.38.7.05-.16-.04-.34-.19-.5-.22-.25-.54-.42-.89-.53Z"/>
            <path class="cls-10" d="M246.77,270.41c.63-.07,1.9-.17,3.24-.01.35.04.61.33.54.61h0c-.06.23-.31.36-.59.31-.91-.14-3.29-.32-4.43-.08-.02-.16.1-.33.27-.46.26-.21.6-.32.97-.36Z"/>
            <path class="cls-4" d="M255.26,281.5c-.33,1.05-1.26,2.94-3.79,2.7-2.53-.24-3.07-2.1-3.2-3.36l6.99.67Z"/>
            <path class="cls-7" d="M251.33,286.03c.73.07,1.41-.26,1.44-.28.15-.07.21-.25.14-.4-.07-.15-.25-.21-.4-.14h0s-.56.27-1.12.22c-.6-.06-1.11-.43-1.12-.43-.13-.1-.32-.07-.42.06-.1.13-.07.32.06.42.03.02.64.47,1.42.55Z"/>
          </g>
          <g>
            <path class="cls-9" d="M242.23,272.18s-1.89-2.8-3.33-1.05c-1.44,1.75-.18,7.45,3.04,6.4l.3-5.35Z"/>
            <path class="cls-4" d="M239.98,277.47c-.03.34.22.64.55.67.34.03.64-.22.67-.55.03-.34-.22-.64-.55-.67-.34-.03-.64.22-.67.55Z"/>
            <path class="cls-7" d="M241.42,275.75c-.11-.01-.21-.1-.23-.21-.32-1.75-2.02-2.61-2.04-2.62-.13-.06-.18-.22-.12-.35.06-.13.22-.18.35-.12.08.04,1.96.98,2.32,3,.03.14-.07.28-.21.3-.02,0-.05,0-.07,0Z"/>
            <path class="cls-7" d="M239.72,274.72s-.1-.02-.14-.06c-.11-.09-.13-.25-.04-.37.01-.02.37-.47,1.06-.7.14-.05.29.03.33.16.05.14-.03.29-.16.33-.53.18-.81.52-.81.52-.06.07-.15.11-.23.1Z"/>
          </g>
          <g>
            <path class="cls-4" d="M251.72,273.4c.02-.18,0-.36-.06-.52-.15-.45-.55-.79-1.05-.85l-4.42-.52c-.35-.04-.68.06-.93.26-.14.11-.25.25-.34.41-.07.13-.12.28-.14.44l-.07.57c-.11.96.15,1.92.74,2.64.58.71,1.29,1.13,2.11,1.25h.12c.95.13,1.88-.14,2.63-.73.76-.6,1.25-1.46,1.36-2.42l.06-.48s0-.02,0-.03ZM251.14,273.85c-.1.82-.51,1.56-1.16,2.07-.64.5-1.44.73-2.25.63h-.11c-.68-.11-1.28-.46-1.77-1.07-.49-.61-.72-1.43-.62-2.24l.07-.57c.05-.41.42-.7.82-.65l4.42.52c.41.05.7.42.65.82l-.06.48Z"/>
            <path class="cls-4" d="M261.1,274.2c-.02-.18-.09-.35-.19-.49-.2-.3-.53-.52-.91-.57l-4.43-.52c-.51-.06-.99.2-1.24.62-.08.14-.14.3-.16.47,0,0,0,.02,0,.02l-.07.57c-.11.96.16,1.92.74,2.64.58.71,1.29,1.13,2.1,1.24h.12c.95.13,1.88-.14,2.63-.73.76-.6,1.25-1.46,1.36-2.42l.06-.48c.01-.12.01-.23,0-.34ZM260.53,274.96c-.1.82-.51,1.56-1.16,2.07-.64.5-1.44.73-2.25.63h-.11c-.68-.11-1.28-.46-1.77-1.07-.49-.61-.72-1.43-.62-2.24l.07-.57c.05-.41.42-.7.82-.65l4.43.52c.41.05.7.42.65.82l-.06.48Z"/>
            <path class="cls-4" d="M245.25,271.77c-.42-.27-1.53-.88-3.17-.95l.14.54c1.36.09,2.31.58,2.7.82.13.08.2.13.2.13l.33-.41s-.08-.06-.19-.13Z"/>
            <path class="cls-4" d="M251.54,273.43l-.11-.51s.79-.17,1.6-.08c.86.1,1.38.43,1.4.44l-.28.44s-.45-.28-1.18-.36c-.71-.08-1.42.07-1.42.07Z"/>
            <path class="cls-4" d="M262.58,273.41c-1,.05-1.84.34-1.89.36l.17.5s.88-.3,1.85-.33l-.13-.52Z"/>
          </g>
        </g>
        <g>
          <g>
            <polygon class="cls-9" points="279.78 400.57 277.52 407.28 271.6 406.72 273.61 399.59 279.78 400.57"/>
            <g>
              <path class="cls-1" d="M277.1,407.05s1.51-2.04,2.71-1.95c1.2.08,10.49,7.42,13.66,8.02,3.18.6,2.57,2.94,1.99,4.13-.58,1.2-25.32-.38-25.32-.38,0,0-.7-7.36.1-9.62.8-2.25,4.38.33,6.86-.21Z"/>
              <g>
                <path class="cls-4" d="M282.24,412.17c-.11.03-.24.02-.35-.04-.21-.12-.29-.39-.17-.61.04-.07,1-1.76,2.31-2.42,1.73-.88,3.09.1,3.15.14.2.15.24.42.09.62-.15.2-.42.24-.62.09-.04-.03-.98-.69-2.22-.06-1.06.54-1.93,2.05-1.94,2.06-.06.1-.15.17-.26.21Z"/>
                <path class="cls-4" d="M280.91,410.92c-.11.03-.24.02-.35-.04-.21-.12-.29-.39-.17-.61.04-.07,1-1.76,2.31-2.42,1.73-.88,3.09.1,3.15.14.2.15.24.42.09.62-.15.2-.42.24-.62.09-.04-.03-.98-.69-2.22-.06-1.07.54-1.93,2.05-1.94,2.06-.06.1-.15.17-.26.21Z"/>
                <path class="cls-4" d="M284.04,413.18c-.11.03-.24.02-.35-.04-.21-.12-.29-.39-.17-.61.04-.07,1-1.76,2.31-2.42,1.73-.88,3.09.1,3.15.14.2.15.24.42.09.62-.15.2-.42.24-.62.09-.04-.03-.98-.69-2.22-.06-1.07.54-1.93,2.05-1.94,2.06-.06.1-.15.17-.26.21Z"/>
              </g>
            </g>
          </g>
          <path class="cls-3" d="M232.04,354.53c-.32,2.74.14,5.53,1.43,7.97,1.9,3.59,6.01,7.35,14.84,6.89,18.82-.99,32.09,0,32.09,0,0,0-1.96,6.35-4.07,15.56-1.24,5.42-5.12,18.56-5.12,18.56,2.55,1.5,5.26,1.12,7.99.62,0,0,19.54-33.52,17.84-44.42s-64.65-8.14-64.65-8.14l-.35,2.97Z"/>
        </g>
        <path class="cls-1" d="M271.22,345.84c-8.86-5.59-22.9-16.25-22.9-16.25,0,0-8.83-17.1-14.03-34.84,0,0-5.9,6.8-1.81,22.02,3.99,14.83,10.39,20.15,10.39,20.15,0,0,16.38,11.73,25.05,14.64,1.37-2.29,2.04-3.37,3.3-5.71Z"/>
        <g>
          <path class="cls-12" d="M256.41,348.59h55.55c.99,0,1.8.81,1.8,1.8v.87c0,.99-.81,1.8-1.8,1.8h-55.55c-.99,0-1.8-.81-1.8-1.8v-.87c0-.99.81-1.8,1.8-1.8Z" transform="translate(-4.6 3.78) rotate(-.76)"/>
          <g>
            <g>
              <polygon class="cls-14" points="313.78 352.68 265.32 353.32 279.75 326.71 328.12 326.23 313.78 352.68"/>
              <polygon class="cls-12" points="310.77 352.71 310.77 352.72 262.4 353.19 276.74 326.75 279.75 326.72 265.41 353.15 310.77 352.71"/>
            </g>
            <path class="cls-1" d="M300.46,339.65c.02,1.7-1.34,3.1-3.04,3.12-1.7.02-3.1-1.34-3.12-3.04-.02-1.7,1.34-3.1,3.04-3.12,1.7-.02,3.1,1.34,3.12,3.04Z"/>
          </g>
        </g>
      </g>
      <g>
        <ellipse class="cls-5" cx="438.24" cy="437.09" rx="40.53" ry="7.9"/>
        <g>
          <g>
            <path class="cls-1" d="M411.24,353.55v81.92c0,1.8,1.46,3.26,3.26,3.26h47.48c.91,0,1.73-.37,2.32-.97.58-.59.94-1.4.94-2.29v-81.92c0-1.8-1.46-3.26-3.26-3.26h-47.48c-.64,0-1.24.19-1.75.51-.91.58-1.51,1.59-1.51,2.75Z"/>
            <g>
              <path class="cls-14" d="M426.03,366.09h31.71c1.24,0,2.24-1,2.24-2.24h0c0-1.24-1-2.24-2.24-2.24h-31.71c-1.24,0-2.24,1-2.24,2.24h0c0,1.24,1,2.24,2.24,2.24Z"/>
              <rect class="cls-14" x="423.79" y="371.82" width="36.19" height="4.49" rx="2.24" ry="2.24"/>
              <path class="cls-14" d="M426.03,386.53h31.71c1.24,0,2.24-1,2.24-2.24h0c0-1.24-1-2.24-2.24-2.24h-31.71c-1.24,0-2.24,1-2.24,2.24h0c0,1.24,1,2.24,2.24,2.24Z"/>
              <path class="cls-14" d="M426.03,396.76h31.71c1.24,0,2.24-1,2.24-2.24h0c0-1.24-1-2.24-2.24-2.24h-31.71c-1.24,0-2.24,1-2.24,2.24h0c0,1.24,1,2.24,2.24,2.24Z"/>
              <path class="cls-14" d="M426.03,406.98h31.71c1.24,0,2.24-1,2.24-2.24h0c0-1.24-1-2.24-2.24-2.24h-31.71c-1.24,0-2.24,1-2.24,2.24h0c0,1.24,1,2.24,2.24,2.24Z"/>
              <path class="cls-14" d="M426.03,417.2h31.71c1.24,0,2.24-1,2.24-2.24h0c0-1.24-1-2.24-2.24-2.24h-31.71c-1.24,0-2.24,1-2.24,2.24h0c0,1.24,1,2.24,2.24,2.24Z"/>
              <path class="cls-14" d="M426.03,427.42h31.71c1.24,0,2.24-1,2.24-2.24h0c0-1.24-1-2.24-2.24-2.24h-31.71c-1.24,0-2.24,1-2.24,2.24h0c0,1.24,1,2.24,2.24,2.24Z"/>
            </g>
            <g>
              <path class="cls-10" d="M417.38,362.56c0,.53.43.96.96.96s.96-.43.96-.96-.43-.96-.96-.96-.96.43-.96.96Z"/>
              <path class="cls-14" d="M417.38,365.13c0,.53.43.96.96.96s.96-.43.96-.96-.43-.96-.96-.96-.96.43-.96.96Z"/>
              <path class="cls-4" d="M417.38,372.78c0,.53.43.96.96.96s.96-.43.96-.96-.43-.96-.96-.96-.96.43-.96.96Z"/>
              <path class="cls-14" d="M417.38,375.35c0,.53.43.96.96.96s.96-.43.96-.96-.43-.96-.96-.96-.96.43-.96.96Z"/>
              <path class="cls-4" d="M417.38,393.23c0,.53.43.96.96.96s.96-.43.96-.96-.43-.96-.96-.96-.96.43-.96.96Z"/>
              <path class="cls-14" d="M417.38,395.79c0,.53.43.96.96.96s.96-.43.96-.96-.43-.96-.96-.96-.96.43-.96.96Z"/>
              <path class="cls-10" d="M417.38,383.01c0,.53.43.96.96.96s.96-.43.96-.96-.43-.96-.96-.96-.96.43-.96.96Z"/>
              <path class="cls-14" d="M417.38,385.57c0,.53.43.96.96.96s.96-.43.96-.96-.43-.96-.96-.96-.96.43-.96.96Z"/>
            </g>
            <g>
              <path class="cls-10" d="M417.38,403.45c0,.53.43.96.96.96s.96-.43.96-.96-.43-.96-.96-.96-.96.43-.96.96Z"/>
              <path class="cls-14" d="M417.38,406.02c0,.53.43.96.96.96s.96-.43.96-.96-.43-.96-.96-.96-.96.43-.96.96Z"/>
              <path class="cls-4" d="M417.38,413.67c0,.53.43.96.96.96s.96-.43.96-.96-.43-.96-.96-.96-.96.43-.96.96Z"/>
              <path class="cls-14" d="M417.38,416.24c0,.53.43.96.96.96s.96-.43.96-.96-.43-.96-.96-.96-.96.43-.96.96Z"/>
              <path class="cls-10" d="M417.38,423.89c0,.53.43.96.96.96s.96-.43.96-.96-.43-.96-.96-.96-.96.43-.96.96Z"/>
              <path class="cls-14" d="M417.38,426.46c0,.53.43.96.96.96s.96-.43.96-.96-.43-.96-.96-.96-.96.43-.96.96Z"/>
            </g>
            <path class="cls-12" d="M421.54,350.29h33.4c0-2.04-1.65-3.7-3.7-3.7h-26.01c-2.04,0-3.7,1.65-3.7,3.7h0Z"/>
          </g>
          <polygon class="cls-14" points="418.59 268.67 418.59 270.89 437.19 270.89 437.19 346.6 439.41 346.6 439.41 268.67 418.59 268.67"/>
        </g>
      </g>
      <path class="cls-12" d="M441.11,269.78c0,1.59-1.29,2.88-2.88,2.88s-2.87-1.29-2.87-2.88,1.29-2.88,2.87-2.88,2.88,1.29,2.88,2.88Z"/>
    </g>
  </g>
</svg>